<svg xmlns="http://www.w3.org/2000/svg" viewBox="0 0 188.32 155.55"><defs><style>.cls-1{fill:#893b42;}.cls-2{fill:#ffce01;}.cls-3{fill:#f9a21b;}.cls-4{fill:#f26d21;}.cls-5{fill:#ffdd51;}.cls-6{fill:#d53e27;}.cls-7{fill:#f05922;}.cls-8{fill:#f48361;}.cls-9{fill:#89441f;}</style></defs><title>bird</title><g id="OBJECTS"><path class="cls-1" d="M268.2,315.16c-1.85-1.6,6.23-25.48,8.29-26.6s5.1.27,4.54,2.87S270.06,316.76,268.2,315.16Z" transform="translate(-150.36 -164.09)"/><path class="cls-1" d="M268.27,314.17s-3.61-3.59-7-3.77-5.51,4.11-4.36,5.18c.51.46,1.52,0,2.5-.62a6.64,6.64,0,0,1,5.92-.64,9.69,9.69,0,0,0,3,.81C269.2,314.91,268.27,314.17,268.27,314.17Z" transform="translate(-150.36 -164.09)"/><path class="cls-1" d="M268.94,313.67s-1.21-4.95-4-6.88-6.85.62-6.42,2.13c.19.66,1.28.82,2.46.78a6.6,6.6,0,0,1,5.37,2.56,9.67,9.67,0,0,0,2.14,2.25C269.34,314.79,268.94,313.67,268.94,313.67Z" transform="translate(-150.36 -164.09)"/><path class="cls-1" d="M267.19,314.93s3.88-2.33,6.84-1.76,3.87,4.7,2.65,5.37c-.53.3-1.31-.3-2-1.06a5.88,5.88,0,0,0-5-1.8,8.49,8.49,0,0,1-2.75.06C266.24,315.37,267.19,314.93,267.19,314.93Z" transform="translate(-150.36 -164.09)"/><path class="cls-1" d="M268.32,315.13s-5.5-1.44-7.55.8-1.69,3.59-.42,3.71c.7.06,1.69-.79,2.44-1.56a5.63,5.63,0,0,1,2.67-1.54C266.76,316.21,268.35,315.69,268.32,315.13Z" transform="translate(-150.36 -164.09)"/><path class="cls-2" d="M261.5,278.55C263,287,274,294.29,276.69,295s3.11,0,4-2,1.95-11.65-1.64-18.57S260.39,272.27,261.5,278.55Z" transform="translate(-150.36 -164.09)"/><path class="cls-1" d="M241,312.18c-1.85-1.6,6.23-25.47,8.29-26.6s5.1.27,4.54,2.87S242.88,313.78,241,312.18Z" transform="translate(-150.36 -164.09)"/><path class="cls-1" d="M241.09,311.19s-3.61-3.59-7-3.77-5.51,4.11-4.36,5.18c.51.46,1.52,0,2.51-.62a6.61,6.61,0,0,1,5.91-.64,9.69,9.69,0,0,0,3,.81C242,311.93,241.09,311.19,241.09,311.19Z" transform="translate(-150.36 -164.09)"/><path class="cls-1" d="M241.76,310.69s-1.21-4.95-4-6.88-6.85.62-6.42,2.13c.19.66,1.28.82,2.46.78a6.6,6.6,0,0,1,5.37,2.56,9.67,9.67,0,0,0,2.14,2.25C242.16,311.81,241.76,310.69,241.76,310.69Z" transform="translate(-150.36 -164.09)"/><path class="cls-1" d="M240,312s3.87-2.33,6.83-1.76,3.87,4.7,2.65,5.37c-.53.3-1.31-.3-2-1.06a5.88,5.88,0,0,0-5-1.8,8.49,8.49,0,0,1-2.75.06C239.06,312.39,240,312,240,312Z" transform="translate(-150.36 -164.09)"/><path class="cls-1" d="M241.14,312.15s-5.5-1.44-7.55.8-1.69,3.59-.42,3.71c.7.06,1.69-.79,2.44-1.56a5.63,5.63,0,0,1,2.67-1.54C239.58,313.23,241.17,312.71,241.14,312.15Z" transform="translate(-150.36 -164.09)"/><path class="cls-3" d="M234.32,275.57c1.49,8.44,12.52,15.74,15.19,16.46s3.11,0,4-2,2-11.65-1.64-18.57S233.21,269.29,234.32,275.57Z" transform="translate(-150.36 -164.09)"/><path class="cls-3" d="M219.94,264.63s-12.68.1-23-5.91a23.62,23.62,0,0,1-8.58-9.43,39.57,39.57,0,0,1-3.94-11.38,33.78,33.78,0,0,1-8.94,7.65c-5.48,3.16-11.83,3.29-11.61,1.39s15.5-15.25,16-15.67c-.38.26-9.8,6.53-15.41,7.3s-11.4-.35-11.34-2.24,28-15.82,28.51-16.1c-.41.14-13.68,4.66-19.3,4.81s-12.77-2-11.75-4.47,31.17-9.21,31.17-9.21-9.2.2-15.65-1.26-15.87-9.51-13.62-10.55,29.91,1.06,36,3.14a24.23,24.23,0,0,1,5.74,3.43,172.16,172.16,0,0,1,15.15,13.36C218.54,226.73,219.94,264.63,219.94,264.63Z" transform="translate(-150.36 -164.09)"/><path class="cls-4" d="M218.07,263.19a37.3,37.3,0,0,1-6.16-.22c-2-.29-4-.72-5.91-1.16a24.41,24.41,0,0,1-10.09-4.45C190,252.71,187,245.64,185,238.59a.3.3,0,0,0-.59.14c1,7.57,4.57,14.9,10.63,19.72a27.57,27.57,0,0,0,10.77,5.36c3.87.87,8.48,1.66,12.39.41C218.71,264.06,218.69,263.18,218.07,263.19Z" transform="translate(-150.36 -164.09)"/><path class="cls-1" d="M192.75,230.87a9.31,9.31,0,0,0,2.52,5.78s-4.77.49-4.41,4.3,3.61,6.6,3.61,6.6-5.56-1-6.07,1.74a39.57,39.57,0,0,1-3.94-11.38,33.78,33.78,0,0,1-8.94,7.65c-5.48,3.16-11.83,3.29-11.61,1.39s15.5-15.25,16-15.67c-.38.26-9.8,6.53-15.41,7.3s-11.4-.35-11.34-2.24,28-15.82,28.51-16.1c-.41.14-13.68,4.66-19.3,4.81s-12.77-2-11.75-4.47,31.17-9.21,31.17-9.21-9.2.2-15.65-1.26-15.87-9.51-13.62-10.55,29.91,1.06,36,3.14a24.23,24.23,0,0,1,5.74,3.43c-.41,2.14-.76,5.7,1.35,8.51l2.29,2.92s-4.12,0-3.6,3.85,2.54,5,2.54,5S192.69,227.54,192.75,230.87Z" transform="translate(-150.36 -164.09)"/><path class="cls-4" d="M190.46,212.28c-3.54-.74-7.24-1.29-10.83-1.83s-7.21-1-10.81-1.54c-5.95-.89-13.91-2.52-16.06-8.89a.48.48,0,0,0-.94.23c.73,6.8,8.92,9.51,14.75,10.57,4.87.88,9.78,1.56,14.69,2.17,2.5.32,5.1.43,7.57.93,3.7.74,16.22,9.45,19.88,10.89C209.44,225.09,192,212.61,190.46,212.28Z" transform="translate(-150.36 -164.09)"/><path class="cls-4" d="M182.78,219.37c-1.37.18-6.69,1.92-8.08,2.31a71.62,71.62,0,0,1-8.22,1.79A42.69,42.69,0,0,1,158,224c-2.71-.13-5.69-.55-7.43-2.83a.14.14,0,0,0-.24.13c.7,2.2,2.89,3.09,5,3.43a33.88,33.88,0,0,0,9.38.17,56,56,0,0,0,9.33-2c1.41-.41,8.13-2.73,8.85-3.14A.18.18,0,0,0,182.78,219.37Z" transform="translate(-150.36 -164.09)"/><path class="cls-4" d="M183.28,219.37s0,0,0,0S183.3,219.37,183.28,219.37Z" transform="translate(-150.36 -164.09)"/><path class="cls-4" d="M183.91,219.14s0,0,0,0S183.92,219.14,183.91,219.14Z" transform="translate(-150.36 -164.09)"/><path class="cls-4" d="M184,219.08a0,0,0,0,0,0,0S184,219.08,184,219.08Z" transform="translate(-150.36 -164.09)"/><path class="cls-4" d="M189,222.85c-1.46,1.1-2.76,2.37-4.27,3.41-1.3.89-2.56,1.82-3.83,2.74-2.73,2-5.55,3.81-8.45,5.5a24.93,24.93,0,0,1-9.19,3.54,21.54,21.54,0,0,1-9.93-1.28.25.25,0,0,0-.2.45c5.91,4,13.31,2.27,19.07-.94a87.3,87.3,0,0,0,8.8-5.67,40.41,40.41,0,0,0,4.34-3.49c1.34-1.3,2.86-2.4,4.14-3.76A.35.35,0,0,0,189,222.85Z" transform="translate(-150.36 -164.09)"/><path class="cls-4" d="M189.86,231.15c-4.07,3.65-7,8.39-11.22,11.92a19,19,0,0,1-6.55,3.81,15.82,15.82,0,0,1-4.05.61c-1.35,0-2.66-.25-4-.26a.2.2,0,0,0-.12.37c2.16,1.28,5.26,1.17,7.63.65a17.9,17.9,0,0,0,7-3.28,40.71,40.71,0,0,0,6.09-6,67.2,67.2,0,0,0,5.82-7.34A.37.37,0,0,0,189.86,231.15Z" transform="translate(-150.36 -164.09)"/><path class="cls-4" d="M204.64,243.77c-2.57-2-5.28-3.59-7.69-5.77s-4.33-4.49-6.47-6.8a.27.27,0,0,0-.44.32,28.74,28.74,0,0,0,6.2,7.68,27.82,27.82,0,0,0,8,5.5C204.8,244.93,205.07,244.1,204.64,243.77Z" transform="translate(-150.36 -164.09)"/><path class="cls-4" d="M208,254.91a42.85,42.85,0,0,1-12.37-7.73,31.51,31.51,0,0,1-4.74-5.51,28.2,28.2,0,0,1-1.78-3,30,30,0,0,0-1.57-3.34c-.09-.13-.35-.11-.34.08a10.06,10.06,0,0,0,1,3.13,36.07,36.07,0,0,0,1.78,3.44,33.19,33.19,0,0,0,4.64,6.15,26.12,26.12,0,0,0,13.09,7.61A.41.41,0,0,0,208,254.91Z" transform="translate(-150.36 -164.09)"/><path class="cls-2" d="M306.37,271.35a146.48,146.48,0,0,1-16.3,10.17c-6.9,3.68-28.5,7.21-46.51,3a44.52,44.52,0,0,1-15.07-6.34,46.17,46.17,0,0,1-3.83-3c-15.61-13.56-22-37.7-19.72-57.89,2.42-21.75,9.25-40.72,16.88-46.7,25-19.56,67.19,10.9,68.09,14.73.84,3.6-5.07,1.86-5.81,1.63h0c.62.27,7.73,3.35,7.92,5.3s-8.39.25-8.39.25l.34,22.28.13,8a57,57,0,0,0,10.66,32.37L302,265.24Z" transform="translate(-150.36 -164.09)"/><path class="cls-5" d="M284.1,187H284s3.81-.1,2.61-2.2-38.55-24.6-56.64-13.1-20.29,48-19.29,62.31c.93,13.33,11,42.38,32.84,50.56a44.52,44.52,0,0,1-15.07-6.34c-18.4-12.74-26-39.11-23.55-60.87s9.25-40.72,16.88-46.7c25-19.56,67.19,10.9,68.09,14.73C290.75,188.92,284.84,187.18,284.1,187Z" transform="translate(-150.36 -164.09)"/><path class="cls-3" d="M306.37,271.35a146.48,146.48,0,0,1-16.3,10.17c-6.9,3.68-28.5,7.21-46.51,3a44.52,44.52,0,0,1-15.07-6.34,46.17,46.17,0,0,1-3.83-3c10,6,15.3,7.4,23.9,6.94a24.66,24.66,0,0,1-12.17-11.45,41,41,0,0,0,26.19,8.87c13.91.89,23.86-8.64,23.86-8.64L302,265.24Z" transform="translate(-150.36 -164.09)"/><path class="cls-3" d="M231.43,242.75A15,15,0,0,1,228,241a7.8,7.8,0,0,1-1.92-2,25.79,25.79,0,0,0-1.52-2.59,7.83,7.83,0,0,0,1.42,5.41,8.93,8.93,0,0,1-3-1.21,8.68,8.68,0,0,1-3.41-4.37c-.09-.25-.49-.24-.49.05a7.68,7.68,0,0,0,2,5.4,7.38,7.38,0,0,1-2.84-1.49c-1.72-1.49-3.16-4.06-2.95-6.36a.25.25,0,0,0-.48-.08c-.83,3-.6,6,1.85,8.17a7.55,7.55,0,0,0,7.32,1.64,5.88,5.88,0,0,0,4.09.11l.11-.06a9.13,9.13,0,0,0,6.35.13C235.07,243.49,232.81,243.17,231.43,242.75Z" transform="translate(-150.36 -164.09)"/><path class="cls-2" d="M295.05,260s10.71-25,11.6-26.38c2.24-3.38,6.11-1.84,7.14-.5,5.28-1.74,8.15,1.67,8.15,1.67s2.78-1.58,4.67-1.29,3.73,2.37,3.73,2.37,3.28-2.28,5.75-1.37l.26.1a4,4,0,0,1,1.46,6.15c-5.47,6.95-21.43,25.94-36.84,31.55C293.07,262.47,295.05,260,295.05,260Z" transform="translate(-150.36 -164.09)"/><path class="cls-3" d="M298.21,265.36s14.4-16.56,15-16S301,267.7,299.54,268.6,298.21,265.36,298.21,265.36Z" transform="translate(-150.36 -164.09)"/><path class="cls-3" d="M296.75,262.46s9.31-17.07,9.9-16.93-8.44,19.83-8.44,19.83Z" transform="translate(-150.36 -164.09)"/><path class="cls-3" d="M299.88,269.21s19.32-18.2,20.74-18-16,17.82-19.85,20Z" transform="translate(-150.36 -164.09)"/><path class="cls-6" d="M234,193.57s.29,3.45-5.64,5.65c-4.77.57-8.76-3.51-9.21-4.39C227.52,194,234,193.57,234,193.57Z" transform="translate(-150.36 -164.09)"/><path class="cls-7" d="M226.24,188.83a2.42,2.42,0,0,0-1.49.49c-1.57,1.17-6,4.54-6.2,5.25-.27.87,4.94,3,10.56,1.7,5.19-1.16,4.84-2.7,4.84-2.7S230.09,188.88,226.24,188.83Z" transform="translate(-150.36 -164.09)"/><path class="cls-8" d="M223.92,189.9a5.14,5.14,0,0,1,2.93-.15c1.34.44,5.68,3.42,5.63,2.47s-3.15-5.22-5.47-5.16C225.59,187.1,223.38,189.25,223.92,189.9Z" transform="translate(-150.36 -164.09)"/><path class="cls-9" d="M225,186.1a3.21,3.21,0,0,0,.88-3.06,3.77,3.77,0,0,0-4.64-2.56c-2.91.79-3.18,4.75-.67,6.26A3.65,3.65,0,0,0,225,186.1Z" transform="translate(-150.36 -164.09)"/><path class="cls-9" d="M225.22,178.49a8.93,8.93,0,0,0-6,1.25,6.24,6.24,0,0,1,5.19-4.08,9.9,9.9,0,0,0-1.2,1.63Z" transform="translate(-150.36 -164.09)"/><path class="cls-9" d="M241.87,188.31a3.24,3.24,0,0,0,.89-3.07,3.78,3.78,0,0,0-4.64-2.56c-2.92.8-3.19,4.75-.68,6.27A3.65,3.65,0,0,0,241.87,188.31Z" transform="translate(-150.36 -164.09)"/><path class="cls-9" d="M237.41,179.29a8.88,8.88,0,0,1,5.89,1.6,6.25,6.25,0,0,0-4.94-4.39,9.77,9.77,0,0,1,1.1,1.7Z" transform="translate(-150.36 -164.09)"/><path class="cls-8" d="M253.2,197.64a5.48,5.48,0,1,1-5.31-5.64A5.48,5.48,0,0,1,253.2,197.64Z" transform="translate(-150.36 -164.09)"/><path class="cls-1" d="M306.48,270c-8.81,2.44-30,.65-39.24-3.11a31.87,31.87,0,0,1-9-6.12c3.53,2.29,7.92,3.81,12,2.46a.71.71,0,0,0,.41-.35,11.88,11.88,0,0,0,5.94.75,9.36,9.36,0,0,0,3.29-1.15,6.1,6.1,0,0,0,1.42-1.08,12.28,12.28,0,0,0,3.11,1.1c1.94.38,4.61,0,5.83-1.68a13.77,13.77,0,0,0,2.43,1c1.9.54,4.41.77,6.14-.4a.61.61,0,0,0,.21-.24Z" transform="translate(-150.36 -164.09)"/><path class="cls-3" d="M299,261.08a.61.61,0,0,1-.21.24c-1.73,1.17-4.24.94-6.14.4a13.77,13.77,0,0,1-2.43-1c-1.22,1.72-3.89,2.06-5.83,1.68a12.28,12.28,0,0,1-3.11-1.1,6.1,6.1,0,0,1-1.42,1.08,9.36,9.36,0,0,1-3.29,1.15,11.88,11.88,0,0,1-5.94-.75.71.71,0,0,1-.41.35c-4.09,1.35-8.48-.17-12-2.46-7-6.39-13.33-16-13.53-23.7-.24-8.51,2-15.26,9-20.06a33.52,33.52,0,0,1,7.75-3.84c10-3.56,18.88-.17,22.54,1.65l.13,8a57,57,0,0,0,10.66,32.37l3.64,5.08Z" transform="translate(-150.36 -164.09)"/><path class="cls-4" d="M270.64,262.83a.71.71,0,0,1-.41.35c-4.09,1.35-8.48-.17-12-2.46-.59-.38-1.16-.78-1.69-1.2a32.93,32.93,0,0,1-12.37-22.16A23.63,23.63,0,0,1,246,225.47c1.47-3.36,3.92-6.85,7.26-8.56a.35.35,0,0,1,.42.05.41.41,0,0,1,0,.55,26,26,0,0,0-6,10.37c-2,7.33-.25,15.06,3.59,21.47a31.53,31.53,0,0,0,7.43,9,16.72,16.72,0,0,0,9.8,3.4c.53,0,1.07,0,1.62,0A.67.67,0,0,1,270.64,262.83Z" transform="translate(-150.36 -164.09)"/><path class="cls-4" d="M282.24,260.21a10.24,10.24,0,0,1-.95,1.14,6.1,6.1,0,0,1-1.42,1.08,9.36,9.36,0,0,1-3.29,1.15,11.88,11.88,0,0,1-5.94-.75c-.33-.12-.66-.26-1-.41a12.64,12.64,0,0,1-1.2-.66,17.76,17.76,0,0,1-4.51-4.09,19.7,19.7,0,0,1-3.82-6.44.25.25,0,0,1,.41-.23c1.57,1.52,2.71,3.48,4.24,5.06a19.26,19.26,0,0,0,5.14,3.77,11.07,11.07,0,0,0,11.37-.62C281.88,258.81,282.65,259.65,282.24,260.21Z" transform="translate(-150.36 -164.09)"/><path class="cls-4" d="M290.66,259.93a3.33,3.33,0,0,1-.43.84c-1.22,1.72-3.89,2.06-5.83,1.68a12.28,12.28,0,0,1-3.11-1.1,20,20,0,0,1-1.9-1.11c-.61-.4-1.2-.83-1.77-1.27a26.29,26.29,0,0,1-8.55-11.32c-.16-.42.51-.65.71-.28a25.75,25.75,0,0,0,8.06,9.19,25,25,0,0,0,5.51,2.83,7.49,7.49,0,0,0,3.46.58,4.14,4.14,0,0,0,1.38-.44c.39-.19.76-.42,1.18-.66A.91.91,0,0,1,290.66,259.93Z" transform="translate(-150.36 -164.09)"/><path class="cls-4" d="M299,261.08a.61.61,0,0,1-.21.24c-1.73,1.17-4.24.94-6.14.4a13.77,13.77,0,0,1-2.43-1,14.23,14.23,0,0,1-2-1.24,14.87,14.87,0,0,1-1.18-.95c-3.57-3.21-5.64-7.69-7.7-11.94a.64.64,0,0,1,1.12-.6c2.13,3.68,4.38,7.53,7.75,10.23a18,18,0,0,0,4.89,2.85,22.17,22.17,0,0,0,2.86.72c.82.17,1.63.2,2.44.34l.33.07A.54.54,0,0,1,299,261.08Z" transform="translate(-150.36 -164.09)"/><path class="cls-4" d="M306.48,270a6,6,0,0,0-2.28,0c-1.14.19-2.33.23-3.48.32-2,.16-4,.34-6,.4a57.75,57.75,0,0,1-12.44-1.09,56.6,56.6,0,0,1-20.41-8.33c-1.69-1.1-3.36-2.21-5-3.47s-3.09-2.73-4.75-4c-.38-.29-1,.24-.68.64,2,3,5,5.44,7.76,7.66a48.08,48.08,0,0,0,9.89,5.92,55,55,0,0,0,23.95,5.23,42.79,42.79,0,0,0,7-.52,36,36,0,0,0,3.66-.86,7.54,7.54,0,0,0,2.89-1.21A.44.44,0,0,0,306.48,270Z" transform="translate(-150.36 -164.09)"/></g></svg>