<svg id="Layer_1" data-name="Layer 1" xmlns="http://www.w3.org/2000/svg" viewBox="0 0 809.48 529.43"><defs><style>.cls-1,.cls-3{fill:#fff;}.cls-1,.cls-4{opacity:0;}.cls-2{fill:#4f46e5;}</style></defs><title>logo</title><rect class="cls-1" x="18.15" y="18.15" width="493.14" height="493.14"/><path class="cls-2" d="M587.71,264.06V720.91H130.86V264.06H587.71M624,227.77H94.57V757.2H624V227.77Z" transform="translate(-94.57 -227.77)"/><path class="cls-2" d="M461.67,455.06A107.72,107.72,0,1,1,354,347.32,107.73,107.73,0,0,1,461.67,455.06Zm-24.6,110.48a137.41,137.41,0,0,1-166.33,0C208.08,593.1,169.28,679,169.28,716.64H538.61C538.61,679.36,498.6,593.44,437.07,565.54Z" transform="translate(-94.57 -227.77)"/><rect class="cls-1" x="563.99" y="8.99" width="236.73" height="236.73"/><path class="cls-3" d="M886.58,245.48v219.3H667.27V245.48H886.58M904,228.05H649.85V482.2H904V228.05Z" transform="translate(-94.57 -227.77)"/><path class="cls-3" d="M826.07,337.16a51.71,51.71,0,1,1-51.71-51.72A51.71,51.71,0,0,1,826.07,337.16Zm-11.8,53a66,66,0,0,1-79.85,0c-30.08,13.25-48.7,54.49-48.7,72.55H863C863,444.83,843.8,403.59,814.27,390.2Z" transform="translate(-94.57 -227.77)"/><rect class="cls-4" x="563.75" y="283.5" width="237.01" height="237.01"/><path class="cls-3" d="M886.61,520V739.56H667V520H886.61m17.44-17.44H649.59V757H904.05V502.55Z" transform="translate(-94.57 -227.77)"/><path class="cls-3" d="M826,611.78A51.78,51.78,0,1,1,774.26,560,51.77,51.77,0,0,1,826,611.78Zm-11.82,53.1a66,66,0,0,1-79.94,0c-30.12,13.26-48.77,54.55-48.77,72.64H863C863,719.59,843.78,678.29,814.21,664.88Z" transform="translate(-94.57 -227.77)"/></svg>