<svg id="Layer_1" data-name="Layer 1" xmlns="http://www.w3.org/2000/svg" viewBox="0 0 778.32 415.5"><defs><style>.cls-1{fill:#d1aa9d;}.cls-2{fill:#c99b87;}.cls-3{fill:#84574a;}.cls-4{fill:#5c8cc6;}.cls-5{fill:#a87867;}.cls-6{fill:#79a581;}.cls-7{fill:#698e71;}.cls-8{fill:#8ba58f;}</style></defs><title>mountain</title><path class="cls-1" d="M259,671.76c-.27-29.06-2-163.37-11.7-167.7a94.56,94.56,0,0,0-19.86-6.47l-2.71-17.81s-6.32,1.62-11.73,0-20.77,1.62-20.77,1.62c-7.23,1.62-19,8.09-24.38,32.37s-9,0-12.64,14.57-9.93,50.19-10.84,64.76c0,0-9.93,22.66-11.73,37.23-1.51,12.14-6.77,34.35-8.48,41.43Z" transform="translate(-124.16 -256.26)"/><path class="cls-2" d="M229.65,671.76H724c-.47-21.54-3.87-159.61-13.84-163.88-10.8-4.63-15.43,46.3-13.89-10.8s-1.54-27.79,0-43.22-18.52-43.22-18.52-43.22S687,390.58,687,384.4,666.9,342.73,666.9,335,670,307.23,670,307.23l-12.35-4.63-3.09-13.89-35.5-3.09L616,304.15H589.73l-27.79-7.72-34,15.43-4.63-18.52-88,1.54-7.72,10.81-21.6,6.17-17,27.78-32.41,6.18-10.81,17-18.52,9.26L315,412.19l-20.06-17L293.38,386l-26.23-4.63-9.26,17v20.06l-15.44,18.52-3.09,34-13.89,24.69-12.34,92.61L223.93,636Z" transform="translate(-124.16 -256.26)"/><path class="cls-3" d="M554.23,311.86s-12.35,18.52-13.89,27.78,0,6.18,0,6.18-7.72-6.18-17,3.08-17,17-17,17,12.35-26.24,26.24-29.32S537.25,318,554.23,311.86Z" transform="translate(-124.16 -256.26)"/><path class="cls-4" d="M710.12,507.88s0,43.21-7.72,55.56,1.54,27.79,1.54,49.4-1.54,41.67-1.54,41.67,6.17-37,6.17-58.66S710.12,507.88,710.12,507.88Z" transform="translate(-124.16 -256.26)"/><path class="cls-3" d="M315,412.19l-4.63,23.15L298,450.77V477l-13.9,6.17-26.23,86.44-1.55,50.93-4.63-71,23.15-75.63-6.17-17h17s-7.72-21.61,0-29.33S301.1,423,301.1,423V410.64Z" transform="translate(-124.16 -256.26)"/><path class="cls-5" d="M619.05,285.62l35.5,3.09,3.09,13.89s11.57,0,12.35,4.63S666.9,335,666.9,335,685.42,372.83,687,384.4s-9.26,26.24-9.26,26.24l-15.43,9.26L609,359.71,616,304.15Z" transform="translate(-124.16 -256.26)"/><path class="cls-5" d="M571.2,452.32s-37.81-20.07-39.35-32.42.77-30.86.77-30.86l-13.12-6.18L552.68,369s2.32-29.33,10-30.1,27-34.72,27-34.72H616l2.32,68.68-5.4,6.95h-37Z" transform="translate(-124.16 -256.26)"/><path class="cls-6" d="M492.51,302.8s-17.57,13.44-28.94,9.3-25.83,9.3-32,7.24-3.88-13.65-3.88-13.65.2-9.42,7.72-10.81,83.69-3.77,88-1.54S528,311.86,528,311.86Z" transform="translate(-124.16 -256.26)"/><path class="cls-2" d="M197,487.82S183,491.26,180.42,511l-2.62,19.71-9.14,1.88,8.49,5.63-2,18.78s-6.53,0-6.53,4.69-2.61,15-2.61,15l9.14-12.2s5.88,2.81,8.49-16.9,4.57-32.85,4.57-32.85H200l-10-5.64v-9.38Z" transform="translate(-124.16 -256.26)"/><path class="cls-3" d="M535.71,308.78s-13.9,10.8-13.9,17l-9.26,18.53-7.71,6.17L494,376.69c-7.71,7.71-21.61,58.65-21.61,58.65l-6.17,9.26-1.54,24.69-9.26,13.89-1.55,24.7-6.17,6.17,1.54,26.24-10.8,15.44,3.09,30.87-13.9,7.71-7.71,71c-9.26-3.09-4.63-63.28-4.63-63.28s13.89-18.52,15.43-27.78S423,554.18,423,554.18s21.61-7.71,17-27.78-27.78-37-27.78-37a46.44,46.44,0,0,1,21.61,13.89c9.26,10.8,12.35,4.63,13.89-6.17s6.17-27.79,9.26-38.59,13.89-29.33,13.89-38.59-17-15.43-17-15.43l21.61-3.09s9.26-13.89,10.81-21.6-12.35,0-12.35,0l12.35-13.9c3.08-15.43,12.34-6.17,12.34-18.52s-1.54-17-1.54-17,3.09,1.55,7.72-9.26S494,313.41,494,313.41V299.52s20.21-1.11,24.84-1.11,4.49,4.19-3.23,7.28S535.71,308.78,535.71,308.78Z" transform="translate(-124.16 -256.26)"/><path class="cls-7" d="M389.08,339.64s-33-.66-40.22,4.5-1,14.47-8.27,16.54-21.7,12.4-21.7,17.57,9.3,16.53,11.36,7.23,9.31-17.57,15.51-17.57,19.63,0,21.7-7.23S389.08,339.64,389.08,339.64Z" transform="translate(-124.16 -256.26)"/><path class="cls-3" d="M301.1,646.79l3.09-49.39,15.43-24.7,6.18-92.6L315,466.21l29.33-41.68,12.35-7.71,7.71-35.5,12.35-20.07,12.35-21.61-23.15,7.72-10.81,18.52,10.81,1.55-15.44,6.17-4.63,23.15,7.72,4.63H324.25l-1.54,6.18,23.15,3.08-10.8,18.52-24.7,6.18L332,436.88l-23.15,17v20.06l7.72,7.72-21.61,26.24,21.61-15.43-10.81,24.69,10.81,6.18-10.81,17-23.15-17,24.7,30.86L305.73,582l-9.26,21.6-12.35-9.26,4.64-32.41-13.9-17-3.08,35.5s-6.18,23.15,9.26,32.42,12.34,18.52,12.34,18.52Z" transform="translate(-124.16 -256.26)"/><path class="cls-6" d="M267.15,381.32c-9.23,1.06-14.41,23.8-9.24,24.83s10.33-8.27,17.57-11.37,18.24-6.3,17.9-8.83S276.38,380.25,267.15,381.32Z" transform="translate(-124.16 -256.26)"/><path class="cls-6" d="M265.07,388.29c-4.09,6.06-11.74,7.15-14.32,14.34-1.83,5.13.77,10.24-1.59,13.84-1.22,1.87-3.79,3.15-5.15,5.28-2.43,3.83-4.57,11.8-5.62,16.33-1.81,7.83-1.28,15.9.29,23.7.74,3.66,4,2.15,4.1-.95.25-11.32-1.69-21.54,8.56-28.5,4.25-2.9,7.93-4.3,9.81-9.33,2.25-6-1.35-10.24-.78-16.14.54-5.55,5.59-11.05,6.76-16.83.23-1.15-1-3.35-2.06-1.74Z" transform="translate(-124.16 -256.26)"/><path class="cls-8" d="M589.86,327.82c1.34-12.29,18.31-10.54,24.57-18.85,5.39-7.14,3-16.73,13.67-19,4.45-.94,15.38-.3,19,1.89s3.36,5.51,5.72,8.29c5.42,6.37,16.46,6.79,12.53,18.63-.65,1.95.41,6.72,3.25,4.7,8.06-5.73,4.94-17.74-.56-24.19-3.71-4.35-9.23-8.92-13.49-12.53-4.72-4-8.88-5.35-15.18-6.05-6.15-.69-15.58-2-20.78,2.16s-3.12,11.22-6.15,16.49c-6.5,11.33-26.92,13-24.6,28.48.22,1.42,1.81,1.37,2-.05Z" transform="translate(-124.16 -256.26)"/><path class="cls-8" d="M628.51,281.59c-4.33-3.34-8.09-4.48-13.74-3.09-10.13,2.51-16.63,7.74-27.67,7.83-13.76.12-27.9,4.32-36.93,15.69-.93,1.17-.29,5.86,1.91,4.65,2.36-1.3,5.13-3.38,7.59-4.33,5.71-2.22,9.05-1.11,15.17.57,7,1.92,13,3.72,20.47,2.4,12.44-2.2,22.37-12.56,32.91-18.93a3.21,3.21,0,0,0,.29-4.79Z" transform="translate(-124.16 -256.26)"/><path class="cls-8" d="M450,405.4c-5.48-4.36-7-6.86-14.4-5.14a25.92,25.92,0,0,0-12.82,7.9c-5.4,5.77-7.43,13.14-11.25,19.84-4.19,7.32-5.83,8.17-13.07,11.09-3.09,1.25-6.18,1.57-9.25,3.15-15.74,8.12-12.77,21-16.7,35.71-4.78,17.86-16.95,32-16.29,51.4.12,3.74,4.44,7.43,6.22,2.39,2.19-6.19,3.22-12.67,5.41-18.86,3-8.48,8.34-14.73,12.91-22.17,2.91-4.72,4.54-9.65,6.22-14.92,2.92-9.15,5.32-13,13.61-18,7.72-4.67,11.87-9.13,15.69-17.48s5.64-18,12.07-24.76c4.21-4.38,14.18-9.67,20.75-6.55,1.68.8,1.86-2.79.9-3.56Z" transform="translate(-124.16 -256.26)"/><path class="cls-8" d="M424.8,503c-6.22-29.1-37.15-14.78-47.14,5-6.75,13.35-1.45,27.22.56,41,1.45,10,9.95,16.6,8,26.29-.3,1.47,1.62,3.49,2.25,1.36,3.46-11.79.28-17.71-.43-27.89-.84-12.18-3.37-28.14,5-37.4,9.76-10.76,17.8-9.38,30-5.56,1.52.48,1.95-1.75,1.73-2.78Z" transform="translate(-124.16 -256.26)"/><path class="cls-8" d="M397.17,541.15c-1.93-10,5.44-12,9.39-18.87a16.13,16.13,0,0,0,2-6.57c.14-1.33.27-8.12-.63-6.53a13.83,13.83,0,0,0,.71-11.83c-1-2.39-4.31-6.29-7.34-4.3-4.13,2.72-5.84,6.3-6.27,11.15a20.49,20.49,0,0,0,.81,8.05,18.22,18.22,0,0,0,1.37,3.55q2.13,2.69.31,1.49c-1.17,4.72-4.11,8.65-4.53,13.75-.33,4,1,7.65,2.19,11.42.6,1.91,2.2,0,1.95-1.31Z" transform="translate(-124.16 -256.26)"/><path class="cls-8" d="M272.12,530.9c3.11-9.37,6.19-18.95,10.62-27.76,4-7.9,6.69-12,16.3-10.59,9.21,1.4,10-22.91-.54-22.35-10.85.58-17.3,10.07-20.83,19.63-2,5.33-1.95,10.7-2.77,16.25-1.17,7.83-3.1,15.85-4.79,23.6-.29,1.33,1.38,3.1,2,1.22Z" transform="translate(-124.16 -256.26)"/><path class="cls-8" d="M293.17,503.24c3.53-2.56,7.44-4.19,10.39-7.52,4.31-4.86,6-10.57,6.24-17,.13-3.89-2.09-10-6.5-10.6-4.76-.69-6.79,4.22-7.7,8-1.62,6.79-.34,14.89-5.09,20.62-1.73,2.08-.94,9.07,2.66,6.46Z" transform="translate(-124.16 -256.26)"/><path class="cls-8" d="M301.08,457c-.3-1.36.9-2.38,1.72-3.56a10,10,0,0,1,3.86-3.34c2.55-1.33,4.59-2.84,5.3-5.78.8-3.26-.53-7.93-4.34-8.43-5-.67-8.86,5.16-10.49,9.09-2.07,5-.95,9.26,1.2,13.88,1.18,2.55,3.15,0,2.75-1.86Z" transform="translate(-124.16 -256.26)"/><path class="cls-8" d="M151,551.85c1.52-5.5,2.75-12.63,5.56-17.6,1.81-3.2,4.67-4.2,7-6.61,4.9-5.15,2.1-10.08,5.76-16.45,2.75-4.78,10.75-9.77,14.36-14.66,5.28-7.17,8.57-7.54,16.29-8.61,2.87-.4,20.13-3.73,20.65,2.54.16,1.93.84,4,3,4.29L225,495c2.46.39,3.86-3.36,4.17-5.08,2.14-11.66-5.63-17.93-16.68-17.78-15.08.21-27.41,1.65-36.08,14.1-4,5.78-10.35,8.89-14,15.13-2.88,5-1.51,12.85-4.07,16.91,2.9-4.61-5.26.46-6.65,3.18-3.91,7.67-2.18,21.23-2.88,29.12-.11,1.27,1.54,3.42,2.13,1.29Z" transform="translate(-124.16 -256.26)"/><path class="cls-8" d="M182,511.28c.45-2.33,2.33-5.33,3.42-7.48,1-2,1.31-4,2.9-5.56,2-2,3.8-3.25,4.51-6.27a8.56,8.56,0,0,0-2.31-8.05c-5.15-4.79-10.8,2.43-12.44,7a19.93,19.93,0,0,0-.86,9.78c.57,3.25,2.14,6.77,2.15,10.06,0,2,2.2,2.76,2.63.48Z" transform="translate(-124.16 -256.26)"/><path class="cls-8" d="M210.49,511.87c-.32-2.52,3.67-5,5.37-6.43-.11.1,3.36-2.83,1.61-2.15,1.11-.43,2.08.38,3.45-.22,6.33-2.8,5.46-14.66,2.27-19.13-3.4-4.75-8.56-.92-8.95,3.85-.05.66-.4,5.06,0,2.77-.23,1.43,0,4.29-.56,5.53.67-1.57-1.06.62-1.28.87a30.31,30.31,0,0,0-2.91,3.48c-2.58,4-4,9-2,13.45,1.3,2.89,3.23-.1,3-2Z" transform="translate(-124.16 -256.26)"/><path class="cls-8" d="M613,290.71c-2.41-3.34-7.38-2.24-10.73-1.9-7.11.74-9,9.69-8.3,15.47a15,15,0,0,0,3.54,8.7c1.84,2.06,5,3.8,7.76,2.22a21.66,21.66,0,0,0,8.3-7.85c2.18-3.59,2.54-7.24,2.06-11.33l.24,2a11,11,0,0,0-.32-2.56,13.08,13.08,0,0,0-2.55-4.76Z" transform="translate(-124.16 -256.26)"/><path class="cls-6" d="M521.14,292.47c-11.73-12.57-26.95-15.47-43.2-10.73-15.4,4.5-34.64,4-40.71,21.51-1.05,3-.33,8,3.45,8.51,7.24,1,9.7-3.62,16.28-6.44,6-2.57,13.15-2.91,19.44-4.9,7.63-2.42,14-4.8,22-4.16s13.94,2.1,21.93,1.29c2.33-.24,1.9-3.87.77-5.08Z" transform="translate(-124.16 -256.26)"/><path class="cls-6" d="M454.15,275.72a16.85,16.85,0,0,0,.74-2.1l-5.37-4.55c.28-.79-.27.54-.29.6a7,7,0,0,0-.67,2.45l7.29,2.86c.14-1.67.29-3.34.43-5l-5.36-7.74a6.53,6.53,0,0,0-3,2.91,14.1,14.1,0,0,0-1.65,6.3c-.34,3.47.05,7.16,2.46,9.87,1.76,2,4.85,2.74,6.9.57,4.22-4.49,5.15-12.16,2.39-17.67-1.33-2.66-3.44-5.51-6.83-4.73s-4.81,4.43-5.41,7.48c-1,4.9-.22,9.65,3.27,13.34a4.86,4.86,0,0,0,5.11.89l.13-.07c3.6-1.8,4.94-6.53,4.82-10.26,0-.5,0-1-.05-1.5l-11.31,7.53.27.29A6.11,6.11,0,0,1,447,274a8.89,8.89,0,0,1,.81-6.7l10.45,3.91c-.3-2.15-.62-4.41-2-6.21-.8-1.08-1.8-2.38-3.12-2.77-3.52-1-5.42,3.46-5.16,6.3l.48,5.16c.2,2.14,1.09,5.67,3.88,5.6,2.58-.06,3.78-3.68,3.59-5.78a10.11,10.11,0,0,0-.62-3.37l-.6-1.13c-.24-.38-.22-.39.06,0-.61-1.75-2.65-3-4.21-1.56-1.75,1.58-1.57,4.35-.94,6.37a16.15,16.15,0,0,0,.71,2.06c1,2.16,2.87,1.91,3.81-.09Z" transform="translate(-124.16 -256.26)"/><path class="cls-6" d="M465.42,267.75a14.32,14.32,0,0,0-1.58,7.33c0,2.5,1.55,7.26,4.82,6.95s4.47-4.38,4.47-7.18v-2.91c0-2.5-1.55-7.26-4.82-6.95s-4.47,4.37-4.47,7.18v2.91l9.29-.23a12.54,12.54,0,0,0-1.11-6c-.71-1.36-1.5-2.69-3.13-3a3.34,3.34,0,0,0-3.47,1.84Z" transform="translate(-124.16 -256.26)"/><path class="cls-6" d="M507.61,259.68c-3.81.17-5.11,4.49-5.86,7.5l11,2c.08-1.41.17-2.82.26-4.23a11.12,11.12,0,0,0-1.85-6.19c-.87-1.22-2.51-2.64-4.16-2.48-4.13.38-5.7,5.46-5.57,9,.05,1.41.1,2.82.16,4.23.11,3.14,1.47,7.59,5,8.23s5.56-3.34,6-6.24a14.23,14.23,0,0,0-.79-8c-.75-1.66-2.1-3.9-4.22-3.8Z" transform="translate(-124.16 -256.26)"/><path class="cls-6" d="M599.16,273.7a15.29,15.29,0,0,0-.14-6c-.57-2.6-2.61-6.9-6-6.59-3.52.33-5,3.86-5.64,6.87a15.48,15.48,0,0,0,.1,6c.44,2.63,2.7,6.92,6,6.61,3.44-.31,5.15-3.86,5.66-6.89Z" transform="translate(-124.16 -256.26)"/><path class="cls-6" d="M635.88,264.55l-.3-.53c-1-1.66-3.29-2.85-5.12-1.91a6.52,6.52,0,0,0-3,3.72c-1.4,3.84-.62,9.66,3.4,11.59l.42.2c2.54,1.22,5-1.59,5.66-3.7a11.45,11.45,0,0,0-1-9.37Z" transform="translate(-124.16 -256.26)"/><path class="cls-6" d="M364.86,337c8.72,0,8.35-19.76-.49-19.76S356,337,364.86,337Z" transform="translate(-124.16 -256.26)"/><path class="cls-5" d="M451.83,272.69a133.84,133.84,0,0,0-1.12,18.78c0,2.8,3,2.73,3-.07a134.66,134.66,0,0,0-1.13-18.73c-.08-.55-.66-.5-.74,0Z" transform="translate(-124.16 -256.26)"/><path class="cls-5" d="M467.07,274.13c-.6,5.08.1,10.25-.43,15.34-.24,2.26,2.4,2.72,2.16.39-.53-5.23.13-10.54-.47-15.76-.11-.92-1.15-.85-1.26,0Z" transform="translate(-124.16 -256.26)"/><path class="cls-5" d="M505.86,267.43c0,6.88.8,13.4-.2,20.27-.56,3.82,3.78,4,3.22-.08-.94-6.75-.86-13.7-2.15-20.39-.15-.77-.87-.46-.87.2Z" transform="translate(-124.16 -256.26)"/><path class="cls-5" d="M593.91,269.43c-2.19,6-1.39,13.47-1.27,19.73.05,2.41,2.54,1.79,2.21-.51-.91-6.36.3-12.56-.07-18.89,0-.52-.61-1-.87-.33Z" transform="translate(-124.16 -256.26)"/><path class="cls-5" d="M631.44,273.62c-.07,2.2-.1,4.4-.36,6.59-.2,1.61-.42,2.93.38,4.4a.68.68,0,0,0,1.19,0c.82-1.44.49-2.84.32-4.42-.24-2.18-.28-4.37-.35-6.57,0-1.11-1.14-1.06-1.18,0Z" transform="translate(-124.16 -256.26)"/><path class="cls-5" d="M363.11,328.66c-.23,4.91-.59,9.82-.51,14.74,0,2.33,2.44,2.25,2.48-.06.09-4.91-.28-9.82-.51-14.72-.06-1.38-1.4-1.32-1.46,0Z" transform="translate(-124.16 -256.26)"/><path class="cls-3" d="M454,671.76a53.76,53.76,0,0,1-.82-8.76c0-6.18,5.4-20.84,5.4-20.84s5.41-26.24,10-32.41,6.17-37.82,6.17-37.82a30,30,0,0,0-5.4,17c0,10-11.58,17.75-13.12,33.18S450,646,445.41,650.65c-3.53,3.53-2.57,15.59-1.92,21.11Z" transform="translate(-124.16 -256.26)"/><polygon class="cls-5" points="101.31 392.85 105.43 415.5 120.77 415.5 122.92 378.19 132.18 364.3 134.5 295.61 143.76 276.32 149.16 249.31 161.51 223.07 173.85 220.76 176.94 181.4 186.2 179.08 190.83 155.93 170.77 138.95 146.46 177.93 153.79 211.5 136.04 210.34 142.21 232.33 129.87 238.5 139.9 238.5 136.04 268.6 127.55 286.35 130.64 310.27 117.52 325.71 126.78 358.12 121.38 372.01 104.4 378.19 119.06 377.41 116.75 391.31 101.31 392.85"/><polygon class="cls-1" points="656.4 415.5 778.32 415.5 737.41 292.82 681.6 266.7 672.3 225.66 621.14 210.74 607.19 229.39 568.2 223.91 546.74 289.09 597.89 393.56 656.4 415.5"/><polygon class="cls-2" points="777.43 415.5 704.85 303.75 718.8 364.2 686.25 359.55 625.79 257.24 597.89 303.75 662.28 415.5 777.43 415.5"/><path class="cls-5" d="M668.43,671.76l30.88-114.49-1.54-31.64s0-39.36,1.15-52.09c1-10.34,1.93-29.71-6.55-41.29s-14.67-21.61-14.67-21.61l-18.52,7.72,5.4,41.67-13.89,22.38-6.94,71L631.4,642.93l1.48,28.83Z" transform="translate(-124.16 -256.26)"/><path class="cls-5" d="M686.29,671.76H724c-.07-18.28-.61-120.34-3.07-136.48-2.7-17.75-2.7-29.33-11.19-32-3.7-1.18-7,1.16-9.26,8.1a61.48,61.48,0,0,0-2.7,14.28l1.54,31.64-10.8,37Z" transform="translate(-124.16 -256.26)"/><path class="cls-3" d="M767.22,592.77l-18.52-4.63V546.47s-2.31-15.44-27.78-11.19l3,136.48h63.4Z" transform="translate(-124.16 -256.26)"/><path class="cls-3" d="M721.81,671.76c-4.21-6.31-14-18.4-25.59-14.94-15.43,4.63-1.54-54-1.54-54L687,592l-1.54-74.09S673.07,579.65,670,616.69s-12.35,37-12.35,37l-2.58,18Z" transform="translate(-124.16 -256.26)"/><path class="cls-3" d="M535.71,401.38,565,406v18.52c-4.63,7.72,6.18,27.79,6.18,27.79l3.08-26.24,1.54-46.3h37l6.17,23.15,18.52,17,10.81,1.55,6.17,15.43L642.2,440,651.46,460l-3.08,15.44L636,480.1,639.12,494l9.26,6.17v13.89l-7.72,10.81-18.52,50.93,6.17,20.06-10.8,9.27-3.09,40.13-5.58,26.51h27.41l4.41-57.38,13.89-38.59s-4.63-67.91,1.54-80.26,20.07-44.76,9.26-63.28,12.35-21.61,12.35-21.61,9.26-24.69,1.55-35.5-35.5-1.54-35.5-1.54L616,358.17l37-7.72H614.42V339.64L666.9,335l-52.48-3.08L616,304.15l-24.69,12.34-1.54,34L565,352l-1.54,23.15-26.24,4.64,26.24,3.08v13.89Z" transform="translate(-124.16 -256.26)"/><path class="cls-5" d="M602.26,671.76c-1.84-6.63-7.41-28-4.82-35.77,3.09-9.27,3.86-23.93,0-24.7S608.25,592.77,609,586.6s.77-37.05-11.58-41.68-23.15-16.2-23.15-16.2,17,20.83,20.84,27,5.4,32.41,0,31.64-10-9.26-17.75-5.4-10,23.92-6.17,31.64,9.26,24.69,6.17,28.55-83.35,0-92.61.77-19.29,3.86-23.15,13.89c-2.33,6.06-4.37,11.54-5.63,14.94Z" transform="translate(-124.16 -256.26)"/><path class="cls-5" d="M321.17,653.73l-10.81,2.32-.65,15.71h8.85l1.06-8,8.49-1.55,6.18-40.9,23.92-34.72,3.86-27.79,14.66-9.26s-4.63-37,3.09-44.76,28.55-16.2,28.55-16.2l3.86.77s12.35,7.72,18.52,13.12S440,516.37,440,516.37l8.49-7.72,13.12-54.79,13.89-43.22s-3.86-5.4-21.61-6.17-21.6-.77-26.24,6.95-17.74,36.27-27,37-29.32,52.48-29.32,52.48l-9.26,25.46-9.26,1.54c-4.63,5.41-19.29,39.36-19.29,39.36,1.54,6.18,9.26,19.3,9.26,19.3l-6.18,13.12s-2.31-11.58-11.57-11.58-13.89,14.66-13.89,14.66l22.38,3.09s-6.95,13.89-9.27,24.69A184.24,184.24,0,0,0,321.17,653.73Z" transform="translate(-124.16 -256.26)"/><path class="cls-5" d="M132.76,663.38l-7.2,8.38H239.28l-15-176.23s-9.15,15.05-12.81,32.41-11.9,75.25-11.9,75.25-18.3,6.94-23.79,6.94S167.53,646,167.53,646l-22,3.47,23.79,4.63v8.1Z" transform="translate(-124.16 -256.26)"/></svg>